<svg height="20" viewBox="0 0 20 20" width="20" xmlns="http://www.w3.org/2000/svg" xmlns:xlink="http://www.w3.org/1999/xlink"><clipPath id="a"><path d="m0 0h20v20h-20z"/></clipPath><g clip-path="url(#a)"><path d="m143.814 104.837-1.948-1.822-.768-.718-4.663-4.361-4.663 4.361-.769.718-1.947 1.822a3.44 3.44 0 0 0 0 5.08 4.044 4.044 0 0 0 5.431 0l1.948-1.822 1.948 1.822a4.044 4.044 0 0 0 5.431 0 3.44 3.44 0 0 0 0-5.08z" fill="#222" transform="translate(-126.435 -95.935)"/><path d="m135.935 118.935h6l-3-5z" fill="#222" transform="translate(-128.935 -100.935)"/><path d="m0 0h20v20h-20z" fill="none"/></g></svg>